# Blender 4.0.2
# www.blender.org
o Plane.012
v 0.500000 0.000000 0.000000
v 0.000000 0.819152 0.000000
v 0.500000 -0.000000 -1.000000
v 0.000000 0.819152 -1.000000
v 1.000000 0.000000 -0.500000
v 0.000000 0.000000 -0.500000
v 1.000000 0.819152 -1.000000
v 0.000000 0.819152 -1.000000
v 1.000000 -0.000000 -0.500000
v 1.000000 1.000000 -0.500000
v 0.000000 0.000000 -0.500000
v 0.000000 1.000000 -0.500000
v 1.000000 0.000000 -0.500000
v 1.000000 0.819152 0.000000
v 0.000000 -0.000000 -0.500000
v 0.000000 0.819152 0.000000
v 0.000000 0.000000 -0.500000
v -0.000000 0.819152 0.000000
v 1.000000 0.000000 -0.500000
v 1.000000 0.819152 0.000000
v 0.000000 -0.000000 -0.500000
v 0.000000 1.000000 -0.500000
v 1.000000 0.000000 -0.500000
v 1.000000 1.000000 -0.500000
v 0.000000 0.000000 -0.500000
v 0.000000 0.819152 -1.000000
v 1.000000 -0.000000 -0.500000
v 1.000000 0.819152 -1.000000
v 0.500000 0.000000 -1.000000
v 0.000000 0.819152 -1.000000
v 0.500000 0.000000 0.000000
v 0.000000 0.819152 0.000000
v 0.500000 -0.000000 -1.000000
v 0.500000 1.000000 -1.000000
v 0.500000 0.000000 0.000000
v 0.500000 1.000000 0.000000
v 0.500000 0.000000 -1.000000
v 1.000000 0.819152 -1.000000
v 0.500000 -0.000000 0.000000
v 1.000000 0.819152 -0.000000
v 0.500000 0.000000 0.000000
v 1.000000 0.819152 0.000000
v 0.500000 0.000000 -1.000000
v 1.000000 0.819152 -1.000000
v 0.500000 -0.000000 0.000000
v 0.500000 1.000000 0.000000
v 0.500000 0.000000 -1.000000
v 0.500000 1.000000 -1.000000
vn 0.8536 0.5210 -0.0000
vn -0.0000 -0.5210 -0.8536
vn -0.0000 -0.0000 -1.0000
vn -0.0000 0.5210 -0.8536
vn -0.0000 -0.5210 0.8536
vn -0.0000 -0.0000 1.0000
vn -0.0000 0.5210 0.8536
vn -0.8536 -0.5210 -0.0000
vn -1.0000 -0.0000 -0.0000
vn -0.8536 0.5210 -0.0000
vn 0.8536 -0.5210 -0.0000
vn 1.0000 -0.0000 -0.0000
s 0
f 1//1 3//1 4//1 2//1
f 5//2 6//2 8//2 7//2
f 9//3 11//3 12//3 10//3
f 13//4 15//4 16//4 14//4
f 17//5 19//5 20//5 18//5
f 21//6 23//6 24//6 22//6
f 25//7 27//7 28//7 26//7
f 29//8 31//8 32//8 30//8
f 33//9 35//9 36//9 34//9
f 37//10 39//10 40//10 38//10
f 41//11 43//11 44//11 42//11
f 45//12 47//12 48//12 46//12
