# Blender 4.0.2
# www.blender.org
o 1A
v 0.146447 0.000000 -0.853553
v 0.853553 0.000000 -0.146447
v 0.146447 1.000000 -0.853553
v 0.853553 1.000000 -0.146447
vn -0.7071 -0.0000 0.7071
s 0
f 1//1 2//1 4//1 3//1
o 1B
v 0.853553 0.000000 -0.853553
v 0.146447 0.000000 -0.146447
v 0.853553 1.000000 -0.853553
v 0.146447 1.000000 -0.146447
vn -0.7071 -0.0000 -0.7071
s 0
f 5//2 6//2 8//2 7//2
o 2A
v 0.853553 0.000000 -0.146447
v 0.853553 1.000000 -0.146447
v 0.146447 0.000000 -0.853553
v 0.146447 1.000000 -0.853553
vn 0.7071 -0.0000 -0.7071
s 0
f 9//3 11//3 12//3 10//3
o 2B
v 0.146447 0.000000 -0.146447
v 0.146447 1.000000 -0.146447
v 0.853553 0.000000 -0.853553
v 0.853553 1.000000 -0.853553
vn 0.7071 -0.0000 0.7071
s 0
f 13//4 15//4 16//4 14//4
